:SAMPLES-PER-SECOND 30
:FULLY-SPECIFIED
:DEGREES
168
root  -27.5536 41.4224 -35.8246 -177.953 2.75521 178.894
RightUpLeg  1.03057 -6.68503 -4.00774
RightLeg  2.56027 1.8622 2.72575
RightFoot  -2.69762 0.185213 -2.68815
RightToes  1.74622e-010 0 -3.6325e-017
Spine  -2.4465 -0.194726 1.70614
Spine1  2.99952 0.155048 -1.94527
HEad  -6.66932 3.69451 -0.738902
LeftShoulder1  0.226538 1.69118 -4.3047
LeftArm  -13.0357 9.01402 -1.79543
LeftForeArm  13.4254 -3.77293 -3.58427
LeftHand  -0.244104 0.0205437 5.32207
RightShoulder  0.179719 -1.87708 2.98128
RightArm  -15.8551 -1.59528 0.0182772
RightForeArm  3.60972 0.349685 4.13472
RightHand  -0.729433 2.27751 -11.2199
LeftUpLeg  1.77566 4.10365 2.88663
LeftLeg  0.0577877 6.78683 -3.09197
LeftFoot  -2.6696 0.0125572 0.0288595
LeftToes  -2.63786e-011 -1.12672e-010 -2.07835e-011
169
root  -27.562 41.4216 -35.8428 -177.935 2.74107 178.886
RightUpLeg  1.03998 -6.65727 -4.00721
RightLeg  2.55373 1.8198 2.67814
RightFoot  -2.71343 0.182885 -2.66272
RightToes  1.74622e-010 0 -3.6325e-017
Spine  -2.34081 -0.186059 1.57571
Spine1  2.93539 0.139265 -1.79051
HEad  -6.48457 3.81158 -0.929203
LeftShoulder1  0.223572 1.71343 -4.33487
LeftArm  -13.1794 8.86842 -1.59284
LeftForeArm  13.9215 -3.76176 -3.51706
LeftHand  -0.244104 0.0205437 5.32207
RightShoulder  0.178022 -1.88534 2.92595
RightArm  -15.7891 -1.29259 -0.253763
RightForeArm  3.66812 0.266597 4.16941
RightHand  -0.712855 2.13964 -11.1615
LeftUpLeg  1.77261 4.07877 2.85261
LeftLeg  0.076512 6.80656 -3.07505
LeftFoot  -2.70973 0.0114025 0.0468032
LeftToes  -2.63786e-011 -1.12672e-010 -2.07835e-011
170
root  -27.5738 41.4209 -35.8586 -177.946 2.71386 178.876
RightUpLeg  1.07534 -6.68978 -4.052
RightLeg  2.57414 1.83157 2.68992
RightFoot  -2.74867 0.181752 -2.64507
RightToes  1.74622e-010 0 -3.6325e-017
Spine  -2.18007 -0.179926 1.47565
Spine1  2.80724 0.111665 -1.60494
HEad  -6.24128 3.88321 -1.10975
LeftShoulder1  0.229696 1.69966 -4.6045
LeftArm  -13.1681 8.63182 -1.14881
LeftForeArm  14.2289 -3.80099 -3.52878
LeftHand  -0.244104 0.0205437 5.32207
RightShoulder  0.170605 -1.91949 2.66478
RightArm  -16.0249 -1.07417 -0.309634
RightForeArm  3.77613 0.343915 4.11623
RightHand  -0.725597 2.18746 -11.2876
LeftUpLeg  1.77563 4.01675 2.7957
LeftLeg  0.130769 6.83791 -3.01863
LeftFoot  -2.75734 0.0121756 0.0347896
LeftToes  -2.63786e-011 -1.12672e-010 -2.07835e-011
171
root  -27.5889 41.4203 -35.8744 -177.906 2.68872 178.871
RightUpLeg  1.05824 -6.76219 -4.1171
RightLeg  2.59431 1.88279 2.75193
RightFoot  -2.77469 0.181597 -2.64266
RightToes  1.74622e-010 0 -3.6325e-017
Spine  -2.13571 -0.178582 1.43167
Spine1  2.82863 0.0920853 -1.49352
HEad  -6.1101 3.82165 -1.12549
LeftShoulder1  0.226103 1.74954 -4.76849
LeftArm  -13.1107 8.45987 -0.830292
LeftForeArm  14.2076 -4.07228 -3.6005
LeftHand  -0.244104 0.0205437 5.32207
RightShoulder  0.161611 -1.95436 2.28031
RightArm  -16.3421 -1.04208 -0.12466
RightForeArm  3.59619 0.643357 4.0726
RightHand  -0.75264 2.33748 -11.4839
LeftUpLeg  1.73032 3.94231 2.73046
LeftLeg  0.170697 6.89137 -2.95637
LeftFoot  -2.79328 0.0138387 0.00894363
LeftToes  -2.63786e-011 -1.12672e-010 -2.07835e-011
172
root  -27.6073 41.4198 -35.8906 -177.806 2.67385 178.861
RightUpLeg  0.962808 -6.8059 -4.16605
RightLeg  2.62418 1.91011 2.78314
RightFoot  -2.79885 0.180926 -2.6322
RightToes  1.74622e-010 0 -3.6325e-017
Spine  -2.19702 -0.179352 1.45656
Spine1  2.97305 0.10286 -1.53588
HEad  -6.14275 3.75585 -1.03392
LeftShoulder1  0.209347 1.86288 -4.60231
LeftArm  -13.099 8.38254 -0.851667
LeftForeArm  14.0943 -4.3905 -3.6652
LeftHand  -0.244104 0.0205437 5.32207
RightShoulder  0.149429 -2.04451 2.06646
RightArm  -16.4329 -0.953624 0.0504295
RightForeArm  3.27718 0.94327 4.11944
RightHand  -0.75072 2.29481 -11.5151
LeftUpLeg  1.63559 3.88685 2.666
LeftLeg  0.182919 6.94842 -2.93237
LeftFoot  -2.82292 0.0135816 0.0129398
LeftToes  -2.63786e-011 -1.12672e-010 -2.07835e-011
